<mxfile host="app.diagrams.net" modified="2024-04-02T17:41:14.269Z" agent="Mozilla/5.0 (Windows NT 10.0; Win64; x64; rv:109.0) Gecko/20100101 Firefox/115.0" version="24.2.1" etag="iWNnTP9NFsXHL4bVL-af" type="github">
  <diagram name="PÃ¡gina-1" id="gTDdpzs3frr_n4w52tqR">
    <mxGraphModel>
      <root>
        <mxCell id="0" />
        <mxCell id="1" parent="0" />
      </root>
    </mxGraphModel>
  </diagram>
</mxfile>
